<svg xmlns="http://www.w3.org/2000/svg" width="101" height="31" viewBox="0 0 101 31" fill="none">
<path d="M17.48 30.04H0.12V1.36H4.56V26.2H17.48V30.04ZM44.52 15.68C44.52 17.68 44.2667 19.5867 43.76 21.4C43.2533 23.1867 42.48 24.76 41.44 26.12C40.3733 27.48 39.0133 28.56 37.36 29.36C35.7067 30.16 33.72 30.56 31.4 30.56C29.24 30.56 27.3333 30.1867 25.68 29.44C24.0533 28.6667 22.6933 27.6133 21.6 26.28C20.5067 24.9467 19.68 23.3733 19.12 21.56C18.56 19.7467 18.28 17.7867 18.28 15.68C18.28 13.7333 18.56 11.8667 19.12 10.08C19.68 8.29333 20.5067 6.72 21.6 5.36C22.6933 4 24.0533 2.92 25.68 2.12C27.3333 1.32 29.24 0.919998 31.4 0.919998C33.56 0.919998 35.4533 1.30666 37.08 2.08C38.7333 2.82667 40.1067 3.86667 41.2 5.2C42.2933 6.53333 43.12 8.09333 43.68 9.88C44.24 11.6667 44.52 13.6 44.52 15.68ZM40.16 15.64C40.16 14.1467 39.9733 12.7333 39.6 11.4C39.2533 10.04 38.72 8.85333 38 7.84C37.28 6.85333 36.3733 6.06667 35.28 5.48C34.1867 4.86667 32.8933 4.56 31.4 4.56C30.0667 4.56 28.8533 4.84 27.76 5.4C26.6933 5.96 25.7867 6.73333 25.04 7.72C24.2667 8.73333 23.68 9.92 23.28 11.28C22.88 12.6133 22.68 14.08 22.68 15.68C22.68 17.1733 22.84 18.6 23.16 19.96C23.5067 21.32 24.04 22.52 24.76 23.56C25.48 24.6 26.3867 25.44 27.48 26.08C28.5733 26.6933 29.88 27 31.4 27C32.8667 27 34.1467 26.72 35.24 26.16C36.3333 25.5733 37.2533 24.76 38 23.72C38.72 22.7067 39.2533 21.5067 39.6 20.12C39.9733 18.7333 40.16 17.24 40.16 15.64ZM70.1891 10.16H65.6691C65.6691 9.09333 65.5224 8.2 65.2291 7.48C64.9357 6.76 64.5357 6.18667 64.0291 5.76C63.4957 5.33333 62.8957 5.02667 62.2291 4.84C61.5891 4.65333 60.9224 4.54667 60.2291 4.52C59.0024 4.52 57.8557 4.77333 56.7891 5.28C55.7224 5.76 54.8024 6.46667 54.0291 7.4C53.2291 8.33333 52.6024 9.46667 52.1491 10.8C51.7224 12.1333 51.5091 13.6533 51.5091 15.36C51.5091 16.2933 51.6291 17.4133 51.8691 18.72C52.1091 20.0267 52.5757 21.28 53.2691 22.48C53.9624 23.68 54.9357 24.72 56.1891 25.6C57.4691 26.4533 59.1491 26.8933 61.2291 26.92C62.0557 26.92 62.8424 26.8667 63.5891 26.76C64.3357 26.6267 65.0424 26.44 65.7091 26.2V18.52H58.8291V14.6H70.1091V28.6L69.1491 28.76C68.7757 28.92 68.3357 29.1067 67.8291 29.32C67.3491 29.5333 66.7624 29.7333 66.0691 29.92C65.3757 30.1067 64.5624 30.2533 63.6291 30.36C62.7224 30.4933 61.6691 30.56 60.4691 30.56C58.1224 30.56 56.1091 30.12 54.4291 29.24C52.7491 28.3333 51.3624 27.16 50.2691 25.72C49.1757 24.2533 48.3624 22.6133 47.8291 20.8C47.3224 18.96 47.0691 17.0933 47.0691 15.2C47.0691 13.3333 47.3357 11.5467 47.8691 9.84C48.4024 8.10667 49.2291 6.57333 50.3491 5.24C51.4424 3.93333 52.8157 2.88 54.4691 2.08C56.1224 1.28 58.0557 0.879998 60.2691 0.879998C61.6024 0.879998 62.8691 1.08 64.0691 1.48C65.2691 1.85333 66.3224 2.42666 67.2291 3.2C68.1357 3.97333 68.8557 4.94667 69.3891 6.12C69.9224 7.26667 70.1891 8.61333 70.1891 10.16ZM100.106 15.68C100.106 17.68 99.8526 19.5867 99.3459 21.4C98.8393 23.1867 98.0659 24.76 97.0259 26.12C95.9593 27.48 94.5993 28.56 92.9459 29.36C91.2926 30.16 89.3059 30.56 86.9859 30.56C84.8259 30.56 82.9193 30.1867 81.2659 29.44C79.6393 28.6667 78.2793 27.6133 77.1859 26.28C76.0926 24.9467 75.2659 23.3733 74.7059 21.56C74.1459 19.7467 73.8659 17.7867 73.8659 15.68C73.8659 13.7333 74.1459 11.8667 74.7059 10.08C75.2659 8.29333 76.0926 6.72 77.1859 5.36C78.2793 4 79.6393 2.92 81.2659 2.12C82.9193 1.32 84.8259 0.919998 86.9859 0.919998C89.1459 0.919998 91.0393 1.30666 92.6659 2.08C94.3193 2.82667 95.6926 3.86667 96.7859 5.2C97.8793 6.53333 98.7059 8.09333 99.2659 9.88C99.8259 11.6667 100.106 13.6 100.106 15.68ZM95.7459 15.64C95.7459 14.1467 95.5593 12.7333 95.1859 11.4C94.8393 10.04 94.3059 8.85333 93.5859 7.84C92.8659 6.85333 91.9593 6.06667 90.8659 5.48C89.7726 4.86667 88.4793 4.56 86.9859 4.56C85.6526 4.56 84.4393 4.84 83.3459 5.4C82.2793 5.96 81.3726 6.73333 80.6259 7.72C79.8526 8.73333 79.2659 9.92 78.8659 11.28C78.4659 12.6133 78.2659 14.08 78.2659 15.68C78.2659 17.1733 78.4259 18.6 78.7459 19.96C79.0926 21.32 79.6259 22.52 80.3459 23.56C81.0659 24.6 81.9726 25.44 83.0659 26.08C84.1593 26.6933 85.4659 27 86.9859 27C88.4526 27 89.7326 26.72 90.8259 26.16C91.9193 25.5733 92.8393 24.76 93.5859 23.72C94.3059 22.7067 94.8393 21.5067 95.1859 20.12C95.5593 18.7333 95.7459 17.24 95.7459 15.64Z" fill="white"/>
</svg>